<svg width="15" height="12" viewBox="0 0 15 12" fill="none" xmlns="http://www.w3.org/2000/svg">
<path d="M13.9998 1.09389L11.8748 11.0314C11.7081 11.7397 11.3227 11.9272 10.7185 11.5939L7.49978 9.21889L5.93728 10.7189C5.72895 10.9272 5.5102 11.0314 5.28103 11.0314L5.53103 7.75014L11.4998 2.37514C11.6456 2.22931 11.6456 2.14597 11.4998 2.12514C11.3748 2.08347 11.2394 2.11472 11.0935 2.21889L3.71853 6.87514L0.531033 5.87514C0.176866 5.77097 0.0101997 5.61472 0.031033 5.40639C0.0518663 5.19806 0.270616 5.02097 0.687283 4.87514L13.0935 0.0626395C13.406 -0.0415272 13.656 0.000139505 13.8435 0.18764C14.031 0.354306 14.0831 0.656389 13.9998 1.09389Z" fill="white"/>
</svg>
